<svg xmlns="http://www.w3.org/2000/svg" viewBox="0 0 192 192">
  <rect width="192" height="192" fill="#2c3e50"/>
  <g>
    <!-- Row 1 -->
    <rect x="16" y="16" width="40" height="40" fill="#e74c3c"/>
    <rect x="56" y="16" width="40" height="40" fill="#3498db"/>
    <rect x="96" y="16" width="40" height="40" fill="#2ecc71"/>
    <rect x="136" y="16" width="40" height="40" fill="#f39c12"/>

    <!-- Row 2 -->
    <rect x="16" y="56" width="40" height="40" fill="#9b59b6"/>
    <rect x="56" y="56" width="40" height="40" fill="#1abc9c"/>
    <rect x="96" y="56" width="40" height="40" fill="#e67e22"/>
    <rect x="136" y="56" width="40" height="40" fill="#34495e"/>

    <!-- Row 3 -->
    <rect x="16" y="96" width="40" height="40" fill="#f1c40f"/>
    <rect x="56" y="96" width="40" height="40" fill="#e74c3c"/>
    <rect x="96" y="96" width="40" height="40" fill="#3498db"/>
    <rect x="136" y="96" width="40" height="40" fill="#2ecc71"/>

    <!-- Row 4 -->
    <rect x="16" y="136" width="40" height="40" fill="#9b59b6"/>
    <rect x="56" y="136" width="40" height="40" fill="#1abc9c"/>
    <rect x="96" y="136" width="40" height="40" fill="#e67e22"/>
    <rect x="136" y="136" width="40" height="40" fill="#f39c12"/>
  </g>
  <!-- Stitch lines -->
  <g stroke="#2c3e50" stroke-width="2" stroke-dasharray="4,4">
    <line x1="56" y1="16" x2="56" y2="176"/>
    <line x1="96" y1="16" x2="96" y2="176"/>
    <line x1="136" y1="16" x2="136" y2="176"/>
    <line x1="16" y1="56" x2="176" y2="56"/>
    <line x1="16" y1="96" x2="176" y2="96"/>
    <line x1="16" y1="136" x2="176" y2="136"/>
  </g>
</svg>
